<svg xmlns="http://www.w3.org/2000/svg" version="1.1" xmlns:xlink="http://www.w3.org/1999/xlink" xmlns:svgjs="http://svgjs.com/svgjs" width="1440" height="560" preserveAspectRatio="none" viewBox="0 0 1440 560"><g mask="url(&quot;#SvgjsMask1000&quot;)" fill="none"><rect width="1440" height="560" x="0" y="0" fill="#0e2a47"></rect><path d="M0,556.048C116.779,579.406,245.866,602.432,349.844,544.368C455.174,485.549,507.195,363.769,547.771,250.158C585.952,143.253,595.036,29.012,573.727,-82.489C553.073,-190.564,513.735,-301.562,428.934,-371.673C348.428,-438.233,231.569,-417.892,131.562,-448.058C30.545,-478.529,-56.138,-556.723,-161.42,-549.747C-276.993,-542.089,-389.216,-490.142,-471.009,-408.132C-555.646,-323.271,-612.092,-208.787,-620.706,-89.244C-629.058,26.654,-583.306,140.576,-517.449,236.311C-458.007,322.721,-359.369,365.225,-270.147,420.356C-182.65,474.421,-100.855,535.875,0,556.048" fill="#0b2239"></path><path d="M1440 1078.33C1538.857 1076.038 1646.092 1060.163 1717.4270000000001 991.685 1785.901 925.953 1762.653 811.595 1805.888 727.096 1852.205 636.573 1970.054 584.048 1977.874 482.665 1985.8400000000001 379.384 1919.598 281.082 1845.905 208.28199999999998 1774.963 138.2 1676.8890000000001 104.66500000000002 1578.541 88.173 1487.982 72.98700000000002 1391.349 75.21100000000001 1310.357 118.47500000000002 1235.621 158.397 1213.9180000000001 252.07100000000003 1155.979 313.895 1094.692 379.291 979.697 403.47 961.102 491.145 942.6379999999999 578.206 1036.41 646.707 1067.7269999999999 730.012 1102.208 821.7339999999999 1082.628 937.7950000000001 1154.181 1004.7429999999999 1227.504 1073.348 1339.613 1080.6570000000002 1440 1078.33" fill="#113255"></path></g><defs><mask id="SvgjsMask1000"><rect width="1440" height="560" fill="#ffffff"></rect></mask></defs></svg>