<svg xmlns="http://www.w3.org/2000/svg" version="1.1" xmlns:xlink="http://www.w3.org/1999/xlink" xmlns:svgjs="http://svgjs.com/svgjs" width="1440" height="560" preserveAspectRatio="none" viewBox="0 0 1440 560"><g mask="url(&quot;#SvgjsMask1002&quot;)" fill="none"><rect width="1440" height="560" x="0" y="0" fill="url(#SvgjsLinearGradient1003)"></rect><path d="M1440 0L995.79 0L1440 155.65z" fill="rgba(255, 255, 255, .1)"></path><path d="M995.79 0L1440 155.65L1440 264.61L556.5999999999999 0z" fill="rgba(255, 255, 255, .075)"></path><path d="M556.6 0L1440 264.61L1440 408L353.02 0z" fill="rgba(255, 255, 255, .05)"></path><path d="M353.02 0L1440 408L1440 426.01L188.23999999999998 0z" fill="rgba(255, 255, 255, .025)"></path><path d="M0 560L223.88 560L0 283.19z" fill="rgba(0, 0, 0, .1)"></path><path d="M0 283.19L223.88 560L238.21 560L0 133.76z" fill="rgba(0, 0, 0, .075)"></path><path d="M0 133.76L238.21 560L841.73 560L0 111.27z" fill="rgba(0, 0, 0, .05)"></path><path d="M0 111.26999999999998L841.73 560L1247.63 560L0 34.609999999999985z" fill="rgba(0, 0, 0, .025)"></path></g><defs><mask id="SvgjsMask1002"><rect width="1440" height="560" fill="#ffffff"></rect></mask><linearGradient x1="15.28%" y1="-39.29%" x2="84.72%" y2="139.29%" gradientUnits="userSpaceOnUse" id="SvgjsLinearGradient1003"><stop stop-color="#0e2a47" offset="0"></stop><stop stop-color="#00459e" offset="1"></stop></linearGradient></defs></svg>